<svg xmlns="http://www.w3.org/2000/svg" x="0px" y="0px"
width="50" height="50"
viewBox="0 0 172 172"
style=" fill:#000000;"><g fill="none" fill-rule="nonzero" stroke="none" stroke-width="1" stroke-linecap="butt" stroke-linejoin="miter" stroke-miterlimit="10" stroke-dasharray="" stroke-dashoffset="0" font-family="none" font-weight="none" font-size="none" text-anchor="none" style="mix-blend-mode: normal"><path d="M0,172v-172h172v172z" fill="none"></path><g><path d="M86,14.33333c-39.58041,0 -71.66667,32.08626 -71.66667,71.66667c0,39.58041 32.08626,71.66667 71.66667,71.66667c39.58041,0 71.66667,-32.08626 71.66667,-71.66667c0,-39.58041 -32.08626,-71.66667 -71.66667,-71.66667z" fill="#ffffff"></path><path d="M105.23533,86h-12.06867v43h-17.91667v-43h-10.75v-14.33333h10.75v-8.63583c0.00717,-12.57033 5.22808,-20.03083 20.038,-20.03083h12.212v14.33333h-8.19508c-5.76558,0 -6.13825,2.15 -6.13825,6.17408v8.15925h14.33333z" fill="#000000"></path></g></g></svg>